<?xml version="1.0" encoding="utf-8"?>
<!-- Generator: Adobe Illustrator 14.0.0, SVG Export Plug-In . SVG Version: 6.00 Build 43363)  -->
<!DOCTYPE svg PUBLIC "-//W3C//DTD SVG 1.1//EN" "http://www.w3.org/Graphics/SVG/1.1/DTD/svg11.dtd">
<svg version="1.1" id="Layer_1" xmlns="http://www.w3.org/2000/svg" xmlns:xlink="http://www.w3.org/1999/xlink" x="0px" y="0px"
	 width="172.91px" height="51.02px" viewBox="0 0 172.91 51.02" enable-background="new 0 0 172.91 51.02" xml:space="preserve">
<path id="RisingSun" fill="#F37743" d="M108.131,3.843C92.907-3.41,74.687,3.053,67.438,18.279
	c-2.87,6.019-3.583,12.506-2.468,18.602c-0.231-5.009,0.727-10.146,3.034-14.99C75.492,6.173,94.307-0.502,110.026,6.988
	c4.711,2.243,8.6,5.511,11.548,9.399C118.598,11.104,114.024,6.649,108.131,3.843"/>
<g id="TEXEP">
	<path id="P_1_" fill="#F4F4F4" d="M163.288,37.863h-12.636v5.654h-5.05V23.491h17.686c1.691,0,3.092,0.164,4.208,0.496
		c1.11,0.331,2.016,0.819,2.715,1.462c1.252,1.232,1.877,2.968,1.877,5.213c0,2.226-0.625,3.964-1.877,5.215
		c-0.699,0.643-1.604,1.136-2.715,1.474C166.38,37.691,164.979,37.863,163.288,37.863z M150.652,33.89h12.138
		c1.859,0,3.008-0.286,3.449-0.854c0.479-0.514,0.716-1.308,0.716-2.373c0-1.087-0.237-1.867-0.716-2.346
		c-0.441-0.57-1.59-0.856-3.449-0.856h-12.138V33.89z"/>
	<path id="E_3_" fill="#F4F4F4" d="M115.945,39.572v-4.166h14.373v-3.781h-19.422v11.893h23.561v-3.945H115.945z M134.373,27.486
		h-23.477v-3.995h23.477V27.486z"/>
	<path id="X_1_" fill="#F4F4F4" d="M70.801,23.491l11.527,10.01L63.18,50.147h6.68l15.828-13.729l8.173,7.1h6.679L77.477,23.491
		H70.801z M93.746,29.418l14.414-12.557h-6.656L87.053,29.418H93.746z"/>
	<path id="E_2_" fill="#F4F4F4" d="M42.813,39.572v-4.166h14.373v-3.781H37.765v11.893h23.561v-3.945H42.813z M61.241,27.486H37.765
		v-3.996h23.477V27.486z"/>
	<path id="T_2_" fill="#F4F4F4" d="M0.825,27.46v-3.969h26.457v3.969H16.578v16.058h-5.049V27.46H0.825z"/>
</g>
</svg>
