<?xml version="1.0" encoding="utf-8"?>
<!-- Generator: Adobe Illustrator 14.0.0, SVG Export Plug-In . SVG Version: 6.00 Build 43363)  -->
<!DOCTYPE svg PUBLIC "-//W3C//DTD SVG 1.1//EN" "http://www.w3.org/Graphics/SVG/1.1/DTD/svg11.dtd">
<svg version="1.1" id="Texep_x5F_Logo" xmlns="http://www.w3.org/2000/svg" xmlns:xlink="http://www.w3.org/1999/xlink" x="0px"
	 y="0px" width="340.16px" height="51.02px" viewBox="0 0 340.16 51.02" enable-background="new 0 0 340.16 51.02"
	 xml:space="preserve">
<g id="EXPLORATION">
	<path id="N" fill="#F4F4F4" d="M337.304,35.954h1.437v7.276l-9.34-4.96v5.123h-1.424v-7.276l9.327,4.898V35.954z"/>
	<path id="O_1_" fill="#F4F4F4" d="M323.875,36.969c0.587,0.643,0.88,1.544,0.88,2.705c0,1.154-0.293,2.057-0.88,2.706
		c-0.398,0.402-0.943,0.693-1.641,0.872c-0.73,0.177-1.638,0.266-2.717,0.266h-1.557c-1.082,0-1.983-0.089-2.708-0.266
		c-0.69-0.179-1.232-0.47-1.628-0.872c-0.589-0.649-0.882-1.552-0.882-2.706c0-1.161,0.293-2.063,0.882-2.705
		c0.396-0.402,0.938-0.694,1.628-0.871c0.725-0.178,1.626-0.267,2.708-0.267h1.577c1.074,0,1.974,0.089,2.707,0.267
		C322.935,36.274,323.477,36.566,323.875,36.969z M321.188,42.176c0.499-0.076,0.898-0.23,1.199-0.463
		c0.513-0.41,0.768-1.088,0.768-2.039c0-0.949-0.255-1.629-0.768-2.038c-0.301-0.232-0.7-0.387-1.199-0.462
		c-0.472-0.074-1.087-0.113-1.844-0.113h-1.19c-0.758,0-1.373,0.039-1.845,0.113c-0.499,0.075-0.899,0.229-1.2,0.462
		c-0.512,0.409-0.769,1.089-0.769,2.038c0,0.951,0.257,1.629,0.769,2.039c0.301,0.232,0.701,0.387,1.2,0.463
		c0.472,0.075,1.082,0.11,1.834,0.11h1.211C320.104,42.286,320.717,42.251,321.188,42.176z"/>
	<path id="I" fill="#F4F4F4" d="M307.277,43.394v-7.439h1.496v7.439H307.277z"/>
	<path id="T" fill="#F4F4F4" d="M293.662,35.954h9.983v1.075h-4.243v6.364h-1.496v-6.364h-4.244V35.954z"/>
	<path id="A" fill="#F4F4F4" d="M291.075,43.394l-4.019-5.185l-3.463,4.448l0.573,0.736h-2.88l5.761-7.439l5.759,7.439H291.075z"/>
	<path id="R" fill="#F4F4F4" d="M274.921,42.093c-0.41-0.39-0.767-0.643-1.076-0.759c-0.3-0.122-0.714-0.185-1.239-0.185h-3.147
		v2.244h-1.506v-7.439h6.806c0.642,0,1.174,0.061,1.599,0.185c0.402,0.122,0.728,0.297,0.973,0.522
		c0.445,0.443,0.667,1.072,0.667,1.886c0,0.807-0.222,1.434-0.667,1.886c-0.335,0.32-0.833,0.533-1.497,0.635l-0.479,0.071
		l0.532,0.349c0.349,0.255,0.731,0.558,1.147,0.913l1.087,0.993h-1.763L274.921,42.093z M274.563,37.029h-5.104v3.045h5.104
		c0.827,0,1.346-0.14,1.559-0.42c0.231-0.253,0.348-0.622,0.348-1.107c0-0.491-0.116-0.856-0.348-1.096
		C275.908,37.171,275.39,37.029,274.563,37.029z"/>
	<path id="O" fill="#F4F4F4" d="M263.434,36.969c0.586,0.643,0.881,1.544,0.881,2.705c0,1.154-0.295,2.057-0.881,2.706
		c-0.396,0.402-0.942,0.693-1.64,0.872c-0.731,0.177-1.638,0.266-2.717,0.266h-1.559c-1.079,0-1.981-0.089-2.706-0.266
		c-0.688-0.179-1.232-0.47-1.629-0.872c-0.589-0.649-0.881-1.552-0.881-2.706c0-1.161,0.292-2.063,0.881-2.705
		c0.396-0.402,0.94-0.694,1.629-0.871c0.725-0.178,1.627-0.267,2.706-0.267h1.579c1.073,0,1.975,0.089,2.705,0.267
		C262.494,36.274,263.038,36.566,263.434,36.969z M260.748,42.176c0.499-0.076,0.897-0.23,1.198-0.463
		c0.513-0.41,0.77-1.088,0.77-2.039c0-0.949-0.257-1.629-0.77-2.038c-0.301-0.232-0.699-0.387-1.198-0.462
		c-0.472-0.074-1.086-0.113-1.845-0.113h-1.189c-0.758,0-1.374,0.039-1.845,0.113c-0.499,0.075-0.898,0.229-1.199,0.462
		c-0.513,0.409-0.771,1.089-0.771,2.038c0,0.951,0.258,1.629,0.771,2.039c0.301,0.232,0.7,0.387,1.199,0.463
		c0.471,0.075,1.082,0.11,1.834,0.11h1.21C259.665,42.286,260.276,42.251,260.748,42.176z"/>
	<path id="L" fill="#F4F4F4" d="M240.467,43.394v-7.439h1.496v6.363h7.013v1.076H240.467z"/>
	<path id="P" fill="#F4F4F4" d="M236.364,36.661c0.443,0.443,0.666,1.072,0.666,1.886c0,0.807-0.223,1.434-0.666,1.886
		c-0.254,0.226-0.581,0.398-0.984,0.521c-0.417,0.13-0.945,0.195-1.589,0.195h-5.258v2.244h-1.508v-7.439h6.766
		c0.644,0,1.172,0.061,1.589,0.185C235.783,36.261,236.11,36.436,236.364,36.661z M233.597,40.074c0.826,0,1.346-0.14,1.559-0.42
		c0.225-0.253,0.339-0.622,0.339-1.107c0-0.491-0.117-0.856-0.349-1.096c-0.214-0.28-0.729-0.422-1.549-0.422h-5.063v3.045H233.597z
		"/>
	<path id="X" fill="#F4F4F4" d="M219.139,39.674l4.285,3.72h-1.887l-3.343-2.899l-3.341,2.899h-1.886l4.285-3.72l-4.285-3.72h1.886
		l3.341,2.9l3.343-2.9h1.887L219.139,39.674z"/>
	<path id="E" fill="#F4F4F4" d="M207.809,39.182v0.994h-5.699v2.153h7.34v1.064h-8.836v-7.439h8.804v1.066h-7.308v2.161H207.809z"/>
</g>
<g id="TECHNOLOGY">
	<path id="Y" fill="#F4F4F4" d="M333.194,27.417l3.845-3.802h1.701l-4.828,4.704v2.737h-1.485V28.34l-4.818-4.725h1.763
		L333.194,27.417z"/>
	<path id="G" fill="#F4F4F4" d="M313.523,27.335c0-1.14,0.315-2.026,0.953-2.656c0.375-0.375,0.891-0.644,1.546-0.808
		c0.69-0.171,1.557-0.257,2.603-0.257h5.127v1.107h-4.828c-0.759,0-1.37,0.034-1.835,0.102c-0.499,0.068-0.899,0.227-1.199,0.473
		c-0.266,0.219-0.465,0.504-0.595,0.859c-0.117,0.336-0.175,0.729-0.175,1.179c0,0.45,0.058,0.844,0.175,1.178
		c0.13,0.355,0.329,0.645,0.595,0.872c0.3,0.237,0.7,0.394,1.199,0.46c0.465,0.069,1.076,0.104,1.835,0.104h3.566v-2.502h1.485
		v3.609h-5.351c-1.046,0-1.912-0.086-2.603-0.257c-0.655-0.163-1.171-0.434-1.546-0.81
		C313.839,29.354,313.523,28.471,313.523,27.335z"/>
	<path id="O_3_" fill="#F4F4F4" d="M309.07,24.63c0.587,0.642,0.881,1.543,0.881,2.705c0,1.154-0.294,2.055-0.881,2.705
		c-0.396,0.403-0.942,0.694-1.64,0.872c-0.731,0.178-1.638,0.266-2.716,0.266h-1.56c-1.079,0-1.98-0.088-2.704-0.266
		c-0.689-0.178-1.235-0.469-1.63-0.872c-0.588-0.65-0.883-1.551-0.883-2.705c0-1.162,0.295-2.063,0.883-2.705
		c0.395-0.403,0.94-0.693,1.63-0.873c0.724-0.177,1.625-0.267,2.704-0.267h1.579c1.073,0,1.976,0.09,2.705,0.267
		C308.132,23.937,308.674,24.227,309.07,24.63z M306.385,29.836c0.498-0.075,0.899-0.229,1.198-0.462
		c0.513-0.409,0.77-1.091,0.77-2.039c0-0.951-0.257-1.628-0.77-2.039c-0.299-0.232-0.7-0.387-1.198-0.462
		c-0.472-0.077-1.087-0.112-1.845-0.112h-1.189c-0.759,0-1.374,0.035-1.845,0.112c-0.499,0.075-0.897,0.229-1.199,0.462
		c-0.512,0.41-0.77,1.088-0.77,2.039c0,0.948,0.258,1.63,0.77,2.039c0.302,0.232,0.7,0.387,1.199,0.462
		c0.471,0.074,1.082,0.112,1.834,0.112h1.209C305.301,29.948,305.913,29.91,306.385,29.836z"/>
	<path id="L_1_" fill="#F4F4F4" d="M286.209,31.056v-7.441h1.497v6.364h7.011v1.077H286.209z"/>
	<path id="O_2_" fill="#F4F4F4" d="M281.315,24.63c0.587,0.642,0.884,1.543,0.884,2.705c0,1.154-0.297,2.055-0.884,2.705
		c-0.395,0.403-0.942,0.694-1.64,0.872c-0.73,0.178-1.637,0.266-2.715,0.266h-1.559c-1.08,0-1.982-0.088-2.706-0.266
		c-0.69-0.178-1.233-0.469-1.63-0.872c-0.587-0.65-0.881-1.551-0.881-2.705c0-1.162,0.294-2.063,0.881-2.705
		c0.396-0.403,0.939-0.693,1.63-0.873c0.724-0.177,1.626-0.267,2.706-0.267h1.578c1.072,0,1.975,0.09,2.706,0.267
		C280.375,23.937,280.921,24.227,281.315,24.63z M278.63,29.836c0.5-0.075,0.9-0.229,1.199-0.462c0.515-0.409,0.77-1.091,0.77-2.039
		c0-0.951-0.255-1.628-0.77-2.039c-0.299-0.232-0.699-0.387-1.199-0.462c-0.472-0.077-1.086-0.112-1.845-0.112h-1.188
		c-0.757,0-1.374,0.035-1.845,0.112c-0.498,0.075-0.898,0.229-1.199,0.462c-0.513,0.41-0.768,1.088-0.768,2.039
		c0,0.948,0.255,1.63,0.768,2.039c0.301,0.232,0.701,0.387,1.199,0.462c0.471,0.074,1.085,0.112,1.835,0.112h1.209
		C277.547,29.948,278.158,29.91,278.63,29.836z"/>
	<path id="N_1_" fill="#F4F4F4" d="M264.82,23.615h1.436v7.276l-9.337-4.959v5.125h-1.425V23.78l9.326,4.897V23.615z"/>
	<path id="H" fill="#F4F4F4" d="M250.891,23.615v7.441h-1.496v-3.29h-7.432v3.29h-1.496v-7.441h1.496v3.023h7.432v-3.023H250.891z"
		/>
	<path id="C" fill="#F4F4F4" d="M226.798,27.335c0-1.14,0.318-2.026,0.953-2.656c0.376-0.375,0.893-0.644,1.548-0.808
		c0.69-0.171,1.559-0.257,2.604-0.257h4.593v1.107H232.2c-0.759,0-1.369,0.034-1.834,0.102c-0.5,0.068-0.9,0.227-1.201,0.473
		c-0.266,0.219-0.465,0.504-0.594,0.859c-0.116,0.336-0.175,0.729-0.175,1.179c0,0.45,0.059,0.844,0.175,1.178
		c0.129,0.355,0.328,0.645,0.594,0.872c0.301,0.237,0.701,0.394,1.201,0.46c0.465,0.069,1.075,0.104,1.834,0.104h4.296v1.107h-4.593
		c-1.046,0-1.914-0.086-2.604-0.257c-0.655-0.163-1.172-0.434-1.548-0.81C227.116,29.354,226.798,28.471,226.798,27.335z"/>
	<path id="E_1_" fill="#F4F4F4" d="M221.561,26.844v0.993h-5.699v2.152h7.339v1.066h-8.837v-7.441h8.807v1.064h-7.309v2.165H221.561
		z"/>
	<path id="T_1_" fill="#F4F4F4" d="M200.613,23.615h9.983v1.076h-4.244v6.365h-1.496v-6.365h-4.243V23.615z"/>
</g>
<rect id="CenterLine" x="186.003" y="16.86" fill="#F4F4F4" width="0.927" height="33.288"/>
<path id="RisingSun" fill="#F37743" d="M108.724,3.843C93.5-3.41,75.279,3.052,68.03,18.278c-2.87,6.019-3.583,12.507-2.468,18.603
	c-0.231-5.009,0.727-10.146,3.034-14.991C76.084,6.173,94.899-0.502,110.619,6.987c4.711,2.243,8.6,5.511,11.548,9.399
	C119.19,11.104,114.617,6.649,108.724,3.843"/>
<g id="TEXEP">
	<path id="P_1_" fill="#F4F4F4" d="M163.881,37.863h-12.636v5.654h-5.05V23.49h17.686c1.69,0,3.092,0.164,4.208,0.496
		c1.11,0.331,2.016,0.819,2.715,1.462c1.252,1.232,1.877,2.969,1.877,5.214c0,2.226-0.625,3.964-1.877,5.215
		c-0.699,0.643-1.604,1.136-2.715,1.474C166.973,37.691,165.572,37.863,163.881,37.863z M151.245,33.89h12.138
		c1.859,0,3.007-0.286,3.449-0.854c0.478-0.514,0.716-1.308,0.716-2.373c0-1.087-0.238-1.867-0.716-2.346
		c-0.441-0.57-1.589-0.856-3.449-0.856h-12.138V33.89z"/>
	<path id="E_3_" fill="#F4F4F4" d="M116.538,39.572v-4.166h14.373v-3.781h-19.422v11.893h23.561v-3.945H116.538z M134.966,27.486
		h-23.477v-3.996h23.477V27.486z"/>
	<path id="X_1_" fill="#F4F4F4" d="M71.394,23.491l11.527,10.01L63.772,50.147h6.68L86.28,36.418l8.174,7.1h6.679L78.069,23.491
		H71.394z M94.339,29.418l14.414-12.557h-6.656L87.646,29.418H94.339z"/>
	<path id="E_2_" fill="#F4F4F4" d="M43.406,39.572v-4.166h14.373v-3.781H38.357v11.893h23.561v-3.945H43.406z M61.833,27.486H38.357
		V23.49h23.477V27.486z"/>
	<path id="T_2_" fill="#F4F4F4" d="M1.417,27.46v-3.97h26.457v3.97H17.17v16.058h-5.049V27.46H1.417z"/>
</g>
</svg>
